#!OML:ASF E:\motion texture\Top Level 1\Subject 1\Session 1\male.ASF
:FULLY-SPECIFIED
:DEGREES
335
root -15.9471 18.1387 3.50472 312.593 -87.782 -312.015
lowerback 5.80645 -4.83266 -2.51036
upperback -1.44198 -6.54972 2.44882
thorax -4.1711 -3.16562 4.52371
lowerneck -20.6107 -1.9279 -3.86237
upperneck 14.5609 -2.7248 6.21728
head 8.03048 -0.8846 2.36624
rclavicle -2.24502e-014 7.95139e-016
rhumerus -55.4889 -2.72926 -61.8283
rradius 46.5999
rwrist 0.333871
rhand -9.29049 -7.32049
rfingers 7.12502
rthumb 16.6668 -36.6249
lclavicle -2.24502e-014 7.95139e-016
lhumerus -10.5418 -20.3447 84.2606
lradius 75.7631
lwrist 6.42025
lhand -9.6453 4.56046
lfingers 7.12502
lthumb 16.3252 33.8933
rfemur -74.4831 -3.83828 17.9724
rtibia 74.3508
rfoot 202.547 171.397
rtoes 20.7536
lfemur 7.77847 -9.04076 -26.7875
ltibia 21.4305
lfoot 709.932 0.0401011
ltoes -17.4469
336
root -16.0925 18.1141 3.4934 314.595 -87.652 -313.632
lowerback 5.55097 -4.78591 -2.5263
upperback -1.53217 -6.48492 2.42807
thorax -4.12784 -3.13336 4.48584
lowerneck -20.606 -1.99812 -3.90137
upperneck 14.4591 -2.80938 6.24707
head 8.00135 -0.924784 2.37082
rclavicle -5.50012e-014 2.22639e-014
rhumerus -54.947 -2.86772 -62.6034
rradius 46.7546
rwrist 0.34231
rhand -9.36274 -7.39962
rfingers 7.12502
rthumb 16.5972 -36.7099
lclavicle -5.50012e-014 2.22639e-014
lhumerus -11.1226 -20.5906 84.6553
lradius 75.3826
lwrist 6.30035
lhand -9.628 4.54329
lfingers 7.12502
lthumb 16.3419 33.8748
rfemur -72.9871 -4.07877 17.6758
rtibia 71.8432
rfoot 203.293 171.169
rtoes 21.2445
lfemur 7.92072 -9.01154 -26.7404
ltibia 21.3576
lfoot 709.79 -0.149104
ltoes -18.0938
337
root -16.241 18.0876 3.48067 317.551 -87.5042 -316.209
lowerback 5.29015 -4.74498 -2.52974
upperback -1.62235 -6.42675 2.41688
thorax -4.08108 -3.10485 4.4513
lowerneck -20.5838 -2.0717 -3.95348
upperneck 14.337 -2.89626 6.288
head 7.96301 -0.966193 2.38084
rclavicle -1.13183e-014 7.95139e-016
rhumerus -54.3793 -3.01924 -63.3834
rradius 46.8938
rwrist 0.354489
rhand -9.49441 -7.41446
rfingers 7.12502
rthumb 16.4705 -36.7353
lclavicle -1.13183e-014 7.95139e-016
lhumerus -11.7181 -20.8645 85.0746
lradius 74.9672
lwrist 6.17565
lhand -9.57603 4.53916
lfingers 7.12502
lthumb 16.3919 33.8665
rfemur -71.3796 -4.34266 17.3916
rtibia 69.2677
rfoot 204.067 170.74
rtoes 21.8485
lfemur 8.07803 -8.9735 -26.6421
ltibia 21.2836
lfoot 709.639 -0.367652
ltoes -18.7367
338
root -16.3928 18.0592 3.46643 321.314 -87.3415 -319.596
lowerback 5.02517 -4.70895 -2.51532
upperback -1.72012 -6.37368 2.419
thorax -4.03974 -3.0791 4.42149
lowerneck -20.5473 -2.14803 -4.01135
upperneck 14.2154 -2.98537 6.32766
head 7.92274 -1.0094 2.39115
rclavicle 4.42047e-014 -1.19271e-014
rhumerus -53.8063 -3.15133 -64.1841
rradius 47.0374
rwrist 0.339706
rhand -9.69184 -7.38833
rfingers 7.12502
rthumb 16.2804 -36.7249
lclavicle 4.42047e-014 -1.19271e-014
lhumerus -12.353 -21.1671 85.5315
lradius 74.5171
lwrist 6.04838
lhand -9.52175 4.54207
lfingers 7.12502
lthumb 16.4442 33.8651
rfemur -69.6691 -4.62073 17.1335
rtibia 66.6373
rfoot 204.869 170.208
rtoes 22.5894
lfemur 8.26113 -8.94227 -26.4878
ltibia 21.1871
lfoot 709.491 -0.604257
ltoes -19.3867
339
root -16.5482 18.0291 3.45099 325.535 -87.1639 -323.443
lowerback 4.751 -4.67593 -2.48061
upperback -1.82848 -6.32318 2.43381
thorax -4.00464 -3.0549 4.3939
lowerneck -20.486 -2.22698 -4.08161
upperneck 14.096 -3.07555 6.3686
head 7.87938 -1.05412 2.40388
rclavicle -4.28132e-014 0
rhumerus -53.2267 -3.25395 -65.0032
rradius 47.1775
rwrist 0.317196
rhand -9.90122 -7.36232
rfingers 7.12502
rthumb 16.0788 -36.7152
lclavicle -4.28132e-014 0
lhumerus -13.0334 -21.4908 86.0275
lradius 74.0234
lwrist 5.92538
lhand -9.46505 4.55456
lfingers 7.12502
lthumb 16.4987 33.8731
rfemur -67.8654 -4.90598 16.9096
rtibia 63.9702
rfoot 205.654 169.691
rtoes 23.4057
lfemur 8.45837 -8.91136 -26.2783
ltibia 21.0854
lfoot 709.344 -0.864955
ltoes -20.0282
340
root -16.7082 17.9973 3.43417 329.998 -86.9701 -327.539
lowerback 4.46368 -4.64278 -2.42729
upperback -1.94461 -6.27132 2.45953
thorax -3.97095 -3.03044 4.36678
lowerneck -20.3922 -2.30869 -4.1651
upperneck 13.9717 -3.16733 6.41396
head 7.82944 -1.10056 2.42012
rclavicle -8.89561e-015 1.90833e-014
rhumerus -52.6416 -3.32719 -65.8428
rradius 47.3131
rwrist 0.278183
rhand -10.1543 -7.32347
rfingers 7.12502
rthumb 15.8351 -36.6959
lclavicle -8.89561e-015 1.90833e-014
lhumerus -13.7465 -21.8406 86.5567
lradius 73.4706
lwrist 5.81545
lhand -9.40344 4.56902
lfingers 7.12502
lthumb 16.5581 33.8826
rfemur -65.9723 -5.19227 16.7298
rtibia 61.2951
rfoot 206.371 169.266
rtoes 24.2034
lfemur 8.68417 -8.89127 -26.0191
ltibia 20.9652
lfoot 709.211 -1.14541
ltoes -20.6518
341
root -16.8729 17.964 3.41663 334.371 -86.7809 -331.557
lowerback 4.15935 -4.60125 -2.35024
upperback -2.06643 -6.20704 2.49283
thorax -3.93618 -3.0005 4.33275
lowerneck -20.2887 -2.39729 -4.24588
upperneck 13.8768 -3.26786 6.44158
head 7.7879 -1.15268 2.42917
rclavicle 5.57094e-014 -1.59028e-015
rhumerus -52.0531 -3.36083 -66.7062
rradius 47.4555
rwrist 0.2595
rhand -10.3374 -7.37032
rfingers 7.12502
rthumb 15.6587 -36.7567
lclavicle 5.57094e-014 -1.59028e-015
lhumerus -14.5007 -22.2112 87.1191
lradius 72.8559
lwrist 5.7231
lhand -9.36388 4.58264
lfingers 7.12502
lthumb 16.5961 33.893
rfemur -64.0024 -5.45885 16.6087
rtibia 58.6513
rfoot 206.959 169.026
rtoes 24.7471
lfemur 8.94544 -8.87057 -25.7177
ltibia 20.8291
lfoot 709.095 -1.42841
ltoes -21.2963
342
root -17.0431 17.9293 3.39774 338.752 -86.5898 -335.594
lowerback 3.83959 -4.55327 -2.25207
upperback -2.19636 -6.13333 2.53551
thorax -3.90292 -2.96643 4.2957
lowerneck -20.1575 -2.48861 -4.33979
upperneck 13.7915 -3.37052 6.47189
head 7.74545 -1.20671 2.44125
rclavicle -2.8948e-015 -1.43125e-014
rhumerus -51.449 -3.38168 -67.5748
rradius 47.576
rwrist 0.27771
rhand -10.4812 -7.41672
rfingers 7.12502
rthumb 15.5202 -36.8139
lclavicle -2.8948e-015 -1.43125e-014
lhumerus -15.3057 -22.5955 87.7183
lradius 72.1846
lwrist 5.64746
lhand -9.34029 4.61186
lfingers 7.12502
lthumb 16.6189 33.9203
rfemur -61.9721 -5.70912 16.56
rtibia 56.0845
rfoot 207.392 168.973
rtoes 24.9295
lfemur 9.23671 -8.85182 -25.3664
ltibia 20.6863
lfoot 709.004 -1.72346
ltoes -22.0043
343
root -17.2196 17.8935 3.3776 342.99 -86.4154 -339.51
lowerback 3.49848 -4.49115 -2.1339
upperback -2.32484 -6.04022 2.58422
thorax -3.85888 -2.92367 4.25121
lowerneck -20.0067 -2.58252 -4.44152
upperneck 13.7146 -3.47601 6.50264
head 7.70289 -1.26277 2.45462
rclavicle 1.97667e-014 1.59028e-015
rhumerus -50.8222 -3.3894 -68.4582
rradius 47.6818
rwrist 0.320062
rhand -10.6087 -7.4695
rfingers 7.12502
rthumb 15.3974 -36.8761
lclavicle 1.97667e-014 1.59028e-015
lhumerus -16.1552 -22.9855 88.3491
lradius 71.4547
lwrist 5.57636
lhand -9.32896 4.6434
lfingers 7.12502
lthumb 16.6298 33.951
rfemur -59.8976 -5.92881 16.5987
rtibia 53.6533
rfoot 207.645 169.063
rtoes 24.7358
lfemur 9.56938 -8.82527 -24.9721
ltibia 20.5361
lfoot 708.952 -2.02227
ltoes -22.7997
344
root -17.4025 17.8568 3.35603 347.137 -86.2552 -343.353
lowerback 3.13136 -4.418 -2.00195
upperback -2.45348 -5.93246 2.63991
thorax -3.80187 -2.87445 4.20385
lowerneck -19.8447 -2.67394 -4.54101
upperneck 13.6562 -3.57857 6.523
head 7.66431 -1.31839 2.46482
rclavicle -6.13748e-015 3.18055e-015
rhumerus -50.162 -3.38811 -69.3539
rradius 47.7629
rwrist 0.402433
rhand -10.7147 -7.5467
rfingers 7.12502
rthumb 15.2953 -36.9611
lclavicle -6.13748e-015 3.18055e-015
lhumerus -17.0612 -23.3602 89.0139
lradius 70.6715
lwrist 5.48637
lhand -9.32846 4.69269
lfingers 7.12502
lthumb 16.6302 34.0002
rfemur -57.796 -6.12865 16.7383
rtibia 51.4098
rfoot 207.735 169.26
rtoes 24.1374
lfemur 9.93133 -8.79084 -24.5354
ltibia 20.3945
lfoot 708.957 -2.34053
ltoes -23.6826
345
root -17.5923 17.8194 3.33285 351.267 -86.1198 -347.198
lowerback 2.72302 -4.33257 -1.85485
upperback -2.57187 -5.80849 2.70248
thorax -3.71266 -2.81855 4.15091
lowerneck -19.6841 -2.7584 -4.64311
upperneck 13.6119 -3.67256 6.54592
head 7.63038 -1.36971 2.47761
rclavicle 9.35158e-014 -2.3059e-014
rhumerus -49.4457 -3.37999 -70.2686
rradius 47.8102
rwrist 0.517111
rhand -10.7713 -7.66434
rfingers 7.12502
rthumb 15.2408 -37.0829
lclavicle 9.35158e-014 -2.3059e-014
lhumerus -18.0102 -23.7008 89.6989
lradius 69.8322
lwrist 5.36234
lhand -9.311 4.74279
lfingers 7.12502
lthumb 16.6471 34.0489
rfemur -55.6762 -6.30688 16.9957
rtibia 49.3932
rfoot 207.663 169.499
rtoes 23.1589
lfemur 10.3055 -8.73398 -24.0481
ltibia 20.2926
lfoot 709.031 -2.68961
ltoes -24.638
